<svg id="Ebene_1" data-name="Ebene 1" xmlns="http://www.w3.org/2000/svg" viewBox="0 0 988.24 153"><defs><style>.cls-1{fill:#70a07c;}.cls-1,.cls-4,.cls-6{stroke:#000;}.cls-1,.cls-6{stroke-miterlimit:10;}.cls-2{fill:#444;stroke:#444;stroke-width:22px;}.cls-2,.cls-4{stroke-linejoin:round;}.cls-3{fill:#282828;}.cls-4{fill:none;}.cls-4,.cls-6{stroke-width:7px;}.cls-5{fill:#fff;}.cls-6{fill:#f7fcf9;}</style></defs><path d="M349.32,675.59h98.43V546.06l-57.38,57.37L333,546.06V683.25l-7.65-.26V535.35H333l57.37,57.37,57.38-57.37h7.65v147.9L349.32,683Z" transform="translate(-325.35 -532.8)"/><path d="M503.85,535.35h7.65v147.9h-7.65Z" transform="translate(-325.35 -532.8)"/><path d="M559.94,683.25V535.35h7.65l83.13,133.87V535.35h7.65v147.9h-7.65L567.59,549.12V683.25Z" transform="translate(-325.35 -532.8)"/><path d="M987.7,535.35V543H934.15V683.25H926.5V543H873v-7.65Z" transform="translate(-325.35 -532.8)"/><path d="M1017,535.35h7.66v147.9H1017Z" transform="translate(-325.35 -532.8)"/><path d="M1086.64,675.59h83.13l-52.28-123.16L1061.9,683.25h-8.16l63.75-150.45,63.75,150.45h-94.6Z" transform="translate(-325.35 -532.8)"/><path d="M1309.25,668.2q-14,17.59-45.9,17.59t-45.64-18.1q-13.77-18.11-13.78-58.39t13.78-58.4q13.77-18.1,45.64-18.1,37,0,50.24,24.22l-62.48,52.28h-12l64.51-53.81q-11.22-15-40.29-15-12.75,0-21.42,2.67a38.65,38.65,0,0,0-15.94,10q-7.26,7.26-10.83,21.16t-3.57,35.07q0,21.16,3.57,35.06T1226,665.52a38.65,38.65,0,0,0,15.94,10q8.67,2.67,21.42,2.68,29.07,0,40.29-15Z" transform="translate(-325.35 -532.8)"/><g id="Fingerabdruck"><path class="cls-1" d="M806.5,578.76a3.2,3.2,0,0,1-2.16-.83,50.36,50.36,0,0,0-68.11,0,3.22,3.22,0,0,1-4.53-.21,3.17,3.17,0,0,1,.21-4.5,56.78,56.78,0,0,1,76.75,0,3.17,3.17,0,0,1,.21,4.5,3.21,3.21,0,0,1-2.38,1Z" transform="translate(-325.35 -532.8)"/><path class="cls-1" d="M811.92,599.59a3.18,3.18,0,0,1-2.66-1.41,46.62,46.62,0,0,0-78,0,3.2,3.2,0,0,1-5.32-3.55,53.06,53.06,0,0,1,88.6,0,3.19,3.19,0,0,1-2.66,5Z" transform="translate(-325.35 -532.8)"/><path class="cls-1" d="M760.17,660.29a3.23,3.23,0,0,1-2.28-.94c-.69-.7-17.11-17.38-17.11-33.43,0-16.66,13.23-30.21,29.5-30.21s29.51,13.55,29.51,30.21a3.21,3.21,0,0,1-6.41,0c0-13.14-10.35-23.84-23.09-23.84s-23.09,10.7-23.09,23.84c0,13.46,15.1,28.79,15.26,28.94a3.19,3.19,0,0,1,.28,4.17,2,2,0,0,1-.31.34A3.12,3.12,0,0,1,760.17,660.29Z" transform="translate(-325.35 -532.8)"/><path class="cls-1" d="M780.4,660.29c-7.7,0-25.56-14.58-27.29-30.83A20.54,20.54,0,0,1,758,613.75a16.34,16.34,0,0,1,12.17-5.56h.09a17.07,17.07,0,0,1,12.09,5,17.75,17.75,0,0,1,5.28,12.74V628a8.94,8.94,0,1,0,17.87,0v-.72c0-19.85-14.44-36.36-32.89-37.59a34.46,34.46,0,0,0-26,9.28,37.1,37.1,0,0,0-3.55,50.09,3.17,3.17,0,0,1-.51,4.48,3.22,3.22,0,0,1-4.5-.5,43.46,43.46,0,0,1,4.17-58.72,40.76,40.76,0,0,1,30.76-11c21.8,1.45,38.87,20.75,38.87,43.94V628a15.34,15.34,0,1,1-30.68,0v-2.07a11.45,11.45,0,0,0-3.39-8.22,10.7,10.7,0,0,0-7.57-3.15h-.06a9.9,9.9,0,0,0-7.44,3.44,14.15,14.15,0,0,0-3.32,10.8c1.42,13.25,16.72,25.13,20.93,25.13a3.19,3.19,0,1,1,0,6.37Z" transform="translate(-325.35 -532.8)"/><path class="cls-1" d="M792.29,654.06c-11.47,0-25.46-13.94-25.46-30.21a3.21,3.21,0,0,1,6.41,0c0,12.61,10.65,23.83,19,23.83a3.19,3.19,0,1,1,0,6.38Z" transform="translate(-325.35 -532.8)"/></g><g id="Sensor"><rect class="cls-2" x="434.07" y="31.34" width="29.55" height="21.13"/><path class="cls-3" d="M769.66,566.78H777a2.93,2.93,0,0,1,2.77,3.07v13.29a2.93,2.93,0,0,1-2.77,3.07h-7.37a2.93,2.93,0,0,1-2.77-3.07V569.85A2.93,2.93,0,0,1,769.66,566.78Z" transform="translate(-325.35 -532.8)"/></g><g id="Rahmen"><path class="cls-4" d="M715.74,538.05c-5.53,0-10,5-10,11.15v119c0,6.16,4.49,11.16,10,11.16H726" transform="translate(-325.35 -532.8)"/><path class="cls-4" d="M817.44,680.55h10.25c5.53,0,10-5,10-11.14V550.71c0-6.15-4.5-11.13-10-11.13" transform="translate(-325.35 -532.8)"/><line class="cls-4" x1="400.75" y1="5.25" x2="390.51" y2="5.25"/><line class="cls-4" x1="502.34" y1="6.77" x2="492.09" y2="6.62"/></g><g id="Hand"><path class="cls-5" d="M789.48,600.17h0a1.55,1.55,0,0,0,.32.92c.17.18.29.22.4.15C790,600.88,789.72,600.53,789.48,600.17Z" transform="translate(-325.35 -532.8)"/><path class="cls-5" d="M789,599.31c-.14-.27-.27-.56-.39-.86-.12.52.26.77.47,1.11a.84.84,0,0,0,.18.23A5.42,5.42,0,0,1,789,599.31Z" transform="translate(-325.35 -532.8)"/><path class="cls-5" d="M792.68,606.48a1.2,1.2,0,0,0,0,.91.14.14,0,0,1,0-.06C792.7,607,792.69,606.76,792.68,606.48Z" transform="translate(-325.35 -532.8)"/><path class="cls-5" d="M768,578v0a1.42,1.42,0,0,0,.27-1A7.75,7.75,0,0,0,768,578Z" transform="translate(-325.35 -532.8)"/><path class="cls-5" d="M765.25,587.11a2.11,2.11,0,0,1-.2.43.92.92,0,0,1-.22.26,1.1,1.1,0,0,1-1,.82c.12.25.44.25,1,0,0-.4-.14-.82.32-1.06a.33.33,0,0,0,.17-.42Z" transform="translate(-325.35 -532.8)"/><path class="cls-5" d="M752.56,592.21c-.07.16-.14.32-.2.49l.1,0a2.71,2.71,0,0,0,1.11-1c.38-.48.79-.91,1.2-1.36.43-.13.85-.47,1.27-.58a1.93,1.93,0,0,0,1.29-.66C756,588.88,753,591.35,752.56,592.21Z" transform="translate(-325.35 -532.8)"/><path class="cls-5" d="M750.79,596.12a.55.55,0,0,1,.22,0c.31.07.37-.13.44-.37s.13-.36.17-.55a1.5,1.5,0,0,0,0-.3A3.48,3.48,0,0,1,750.79,596.12Z" transform="translate(-325.35 -532.8)"/><path class="cls-5" d="M759.07,634.41c-.19-.19-.22-.46-.38-.7a.63.63,0,0,1-1,.35l-.06.17a1.44,1.44,0,0,1-.21.41,2,2,0,0,1-.17.27l-.06.26c-.16.57-.29,1.16-.41,1.75.22.09.59.05.6-.29s0-.67.44-.81c.13,0,.24-.29.3-.47s.11-.35.33-.42.27.24.44.36l.75-.27v-.13C759.48,634.73,759.26,634.59,759.07,634.41Z" transform="translate(-325.35 -532.8)"/><path class="cls-5" d="M753.58,659a.42.42,0,0,1-.1.2c0,.12-.06.25-.08.37l.33.13a3.23,3.23,0,0,0,0-1.77l-.22,1A.15.15,0,0,1,753.58,659Z" transform="translate(-325.35 -532.8)"/><path class="cls-5" d="M784.13,630.49c-.09.21-.19.42-.27.63a.85.85,0,0,1,.34-.14,1.43,1.43,0,0,1,.15-.86A1.25,1.25,0,0,0,784.13,630.49Z" transform="translate(-325.35 -532.8)"/><path class="cls-5" d="M790.57,618.31c.18-.38.43-.75.64-1.13a6,6,0,0,1,.12-.85c-.28.17-.34.54-.51.8,0,.06,0,.16-.08.23-.14.29-.19.3-.44.1,0,.06-.06.2,0,.23.25.23.05.44,0,.64a23.39,23.39,0,0,1-1,2.29c-.07.41-.07.44-.31.68a8,8,0,0,0-.61,2.13,1.24,1.24,0,0,1-.19.36,12.12,12.12,0,0,0-1.23,1.9,24,24,0,0,1-1.94,3.86C785.57,629.23,790.17,619.15,790.57,618.31Z" transform="translate(-325.35 -532.8)"/><path class="cls-5" d="M782.38,635.08a8.51,8.51,0,0,1,.34-1.43c-.38.55-.77,1.11-1.19,1.63a9.71,9.71,0,0,1-1.16,1.92.63.63,0,0,0-.06.38.73.73,0,0,1-.36.7.54.54,0,0,0-.29.65c.2-.32.41-.64.64-.94C781,637,781.74,636.1,782.38,635.08Z" transform="translate(-325.35 -532.8)"/><path class="cls-5" d="M790,607.72c0-1.13-.94-.47-.88.28,0,.28.1.57.14.83l-.41.34-.05,0c.21-.3.05-.67.14-1,0-.14-.06-.32-.1-.49l-.1,0c.24-.22.55-.36.63-.72a1.28,1.28,0,0,0-.27,0c-.06,0-.11.11-.16.11a.47.47,0,0,1-.27-.1c0-.14.13-.36.27-.43l0-.09c-.15.06-.48.12-.58,0-.19-.34-.34-.18-.51,0s-.16,0-.29.09c.49-1,.57-.91,1-.59,0-.28,0-.51,0-.76,0,0,.12,0,.12.08a3,3,0,0,0,.42,1.07c.06.13.15.34.29.15.15-.45-.17-.85-.3-1.26,0-.11-.09-.27-.17-.32-.24-.13-.16-.54-.47-.6-.1,0-.16-.2-.27-.24a.69.69,0,0,0-.32,0c-.08-.38-.17-.7-.24-1l-.11,0a3.27,3.27,0,0,0-.84,1.91,1,1,0,0,1,0,.84c-.41.68-.59,1.55-1,2.25-.3.44-.64.85-1,1.26a.51.51,0,0,1-.61.17,6.23,6.23,0,0,0-1.22,0c-.62.16-.81-1-1.43-.6-.34.28-.73.14-1.08.29s-.46.28-.71,0a2.18,2.18,0,0,0-.28.25c.13.11.23.27.39.19.28,1.12-.41,1.25-.91.39-.34.39-.08.76.05,1.15a.8.8,0,0,1-.39-.77c0-.24.06-.48-.21-.6s-.31-.31-.49-.43c-.22.37-.26.36.17.61l.2.61c-.24-.24-.36-.3-.65-.24a.9.9,0,0,0,0,.34.75.75,0,0,1,.17.83c-.23-.35-1-.71-.65-1.2.05-.07,0-.19.07-.38a2.32,2.32,0,0,0-.83.7c-.1-.28-.2-.38-.41-.22s-.22,0-.44-.09a.7.7,0,0,1,.16.73c-.49-.07-.51-.66-.37-1.08a8.35,8.35,0,0,0-.22-1.72c-.44-.64.32-1.27-.11-1.95-.09-.16.09-.53.14-.8h0a1.48,1.48,0,0,1,.34-1.07.32.32,0,0,0,0-.27,1.29,1.29,0,0,1,.25-1.27c.19-.21.17-.64.32-.94.26-.53,0-1.07.08-1.6a7.88,7.88,0,0,0-.08-1.38c.34-2.17-.43-4.3-.51-6.47-.1-.88-.62-1.71-.49-2.62.32-1.3-.3-2.57,0-3.85.09-.28.22-.68-.19-.89-.08-.29.14-.69.19-1a.43.43,0,0,0-.3-.51h0a1.08,1.08,0,0,1-.29-.13,12.33,12.33,0,0,0-1.54.16c-.27.37-.64.15-1,.2a.22.22,0,0,1-.17,0c-.19-.35-.46-.22-.74-.21a3.12,3.12,0,0,1-.85-.12c-.17,0-.22,0-.25.2-.11.82-.25,1.63-.36,2.45-.09.53.1,1.16-.21,1.61A7.22,7.22,0,0,0,769,590c0,.56-.1,1.14-.09,1.71a9.08,9.08,0,0,0-.21,2.59,1,1,0,0,1-.13.58c-.36.33-.26.77-.32,1.18-.13,1-.37,2-.5,3a7.43,7.43,0,0,1-.51,1.87c-.45.66-.13,1.39-.43,2.05-.13.27-.29.53-.4.81s-.24.46-.05.73a6.17,6.17,0,0,1-.13.92l.09.06.38-.33c.21.24.1.68.12.94-.17,0-.38-.05-.41,0s-.28.47,0,.7.11.28-.06.32c-.56.07-.69.23-.28,1.09-1.47-.06.11-.87-.64-1.46a5.5,5.5,0,0,0-.34,1.37c-.11.37-.34.71.1,1-.68.12-1.05.72-1.56,1.1-.31.23-.34.47-.17.9a.73.73,0,0,0-.51.4c-.17.54-.32,1.1-.47,1.64a.37.37,0,0,0,0,.18c.13.54-.19.83-.51,1.13s-.38.56-.59.82c0,.06-.12.13-.11.2,0,.55-.31,1-.37,1.5,0,.34,0,.67,0,1,0,.51-.59.87-.34,1.37.44.78-.22.7-.48,1.3a11,11,0,0,0-1.05,2.64,5.56,5.56,0,0,0,0,.91c-.11.22-.13.39.11.54.29.6-.27,3.13.71,3-.05,1.1.66.56.88,1.38.08.5.47.64.75.9s.4.3.58.47.22.53.41.62a1.61,1.61,0,0,0,.54-.08.43.43,0,0,1,0,.12c0,.37.27.42.51.53a6.79,6.79,0,0,1,1.25.5c.31.19.73.21.9.68a4.28,4.28,0,0,0,.56.82c-.15,2.92-.92,2.47-3.13,2.19a.26.26,0,0,1-.17-.17c-.07-.22-.2-.24-.38-.24-.58,0,.1.8-.61.79,0-.05,0-.12,0-.15-.57-.42,0-.43.19-.88,0,0-.09-.13-.11-.12a.73.73,0,0,0-.41.4h-.7c0-.14.08-.31.12-.47s.24-.37-.05-.5l-.28.36-.08,0a.6.6,0,0,0-.41-.69l.22-.35-.07-.06c-.17.15-.7.39-.32.64a5.93,5.93,0,0,1,.52,1.43c0,.07.09.17.12.16a.72.72,0,0,0,.25-.12l0-.12c.38.35-.19,1.79.58,1.45-.07.23-.06.42-.32.37s-.28.19-.2.37c.23.57,0,1.07-.13,1.59,0,.24-.32.43-.41.68-.38,1.18-.69,2.41-1,3.61,0,.13.08.29.15.48-.34.5-.46.42,0,1.08a9.43,9.43,0,0,0-.51,1.83,1.08,1.08,0,0,0,.16.3,1.55,1.55,0,0,0,.19-.78h.12l-.09.92-.48.46.08,0a1.43,1.43,0,0,1-.17.38.59.59,0,0,0,0,.77l.06.06a.49.49,0,0,1,.06.41c-.17.38-.57.71-.67,1.11.06.59-.33,1.06-.33,1.62s0,1.12,0,1.68a19.35,19.35,0,0,0-.43,2.93c0,.89-.52,1.68-.39,2.6.05.26-.14.58-.22.87a10.89,10.89,0,0,0-.45,2.66,1.08,1.08,0,0,1-1,.87c-.76-.14,16.26,1.86,16.37,1.47-.24.16-.25.63-.4.91-.18-.28-.33-.52-.5-.75s-.36-.23-.51-.38l.3-.11a5.4,5.4,0,0,1-.46-2.25c0-.46-.09-.52-.49-.46-.08,0-.17,0-.3-.11.32-.2.58-.37.46-.75-.29-.33,0-.29.17-.35,0-.4.09-.81.14-1.26.43.1.38-.42.51-.71s-.06-.45-.06-.68a1,1,0,0,1,.13-.5c.29-.43-.07-.78,0-1.15a3.46,3.46,0,0,0,.23-1c.11-.33.08-.55-.27-.65s.06-.43.22-.55l-.23-.36a1.12,1.12,0,0,0,.35.12c.13,0,.33-.06.36-.15a1.22,1.22,0,0,0-.06-.49c-.11-.12-.23-.28-.34-.42.17-.07.42-.08.55-.25a.74.74,0,0,0-.45-.91c-.32,0-.47-.31-.63-.59-.25.3,0,.5.1.78l-.34,0c-.06-.42-.38-1.14.25-1,.22,0,.44.19.68,0s.37.35.55.49a.54.54,0,0,1,.39-.7c.31-.14.33-.44.06-.72s0-.58.15-.78.39-.51.2-.88a.2.2,0,0,1,0-.17c.2-.43.41-.85.59-1.23,0-.42-.23-.77,0-1.14a1.33,1.33,0,0,1,.38.29,14.48,14.48,0,0,0,.43-2.51c0-.28-.07-.57.25-.72,0,0,.07-.17.05-.23-.12-.28-.06-.5.27-.69l-.51-.15,0-.12c.23-.07.58-.06.76-.21q.3-.66.54-1.35a8.33,8.33,0,0,1,.37-1.55c.23.13.36,0,.46-.32s.23-.31.28-.49a5,5,0,0,0,.11-.85s-.13-.09-.15-.07c-.31.26,0,.73-.58.4a2.44,2.44,0,0,0,.43-.81.5.5,0,0,1,.44-.55c.3-.06.34-.24.3-.51s0-.71.39-.6c.71.44.68-.89,1-1.3a7.56,7.56,0,0,0,.89-1.66c.39-.75,1-1.32,1.43-2a7.2,7.2,0,0,1,.87-1.62c.2-.29.29-.68.52-1a6.64,6.64,0,0,1,.91-1.23,1.36,1.36,0,0,0,.5-.75c.11-.33.13-.72.48-.94.18-.12.23-.47.36-.7s.29-.43.41-.66a7.79,7.79,0,0,0,.67-2.08c.52-1,1.09-1.91,1.56-2.91a4.44,4.44,0,0,1,.63-1.83,3.32,3.32,0,0,0,.34-.68,18.09,18.09,0,0,0,1-2.79c.27-.62.62-1.25.86-1.89.07-.44,0-.9.11-1.33a5.29,5.29,0,0,0,.45-2A1.26,1.26,0,0,0,790,607.72ZM759.3,623l.32.21,0,.11-.37.13-.09-.42Zm-.08,1.45a5.07,5.07,0,0,1,.34-.55c.26.26.15.55.07.81,0,0-.21.07-.29,0a.33.33,0,0,1-.12-.28Zm.68,3.52a1,1,0,0,0-.22-.19l.11-.21.72.32c-.24.33-.38.34-.61.08Zm.86-.77c-.44-.13-.86-.68-1.41-.13l.19-1.18a3.35,3.35,0,0,0,1.26,1.22Zm-.62-6,.71-.32c-.19.48-.31.54-.71.32Zm1.94-6.35c0-.12,0-.24.07-.37h.17l.09.39ZM759,652.16a6,6,0,0,1-.35-.72l-.1.11.09-.66h.08C758.82,651.28,759.15,651.6,759,652.16ZM762.71,636c.11.41.19.72.28,1-.28,0-.46-.47-.28-1Zm-1,.93c0-.2.07-.4.1-.59l.31.28c0,.24-.13.38-.41.31Zm.23.87c.16,0,.34-.1.36,0a1.1,1.1,0,0,1,.17.59Zm1.21,2.91c-.05,0-.2.09-.23.06a.94.94,0,0,1-.26-.43c0-.23.14-.27.31-.28.06.2.23.45.18.65Zm0-1.4a6.14,6.14,0,0,1-.62-.73c.33,0,.78-.08.87.31a1.49,1.49,0,0,1-.26.42Zm.78-1.48c0-.06,0-.17,0-.26H764l.31.49c-.28.17-.35-.06-.43-.23Zm2.79,15.34.15.08c0,.15-.06.29-.1.43l-.2-.07Zm0,8-.25-.36.28-.33c.07.1.19.22.17.3a1,1,0,0,1-.2.39Zm.15-5.45a1.52,1.52,0,0,1,.17-1.58,2.39,2.39,0,0,1-.18,1.58Zm2.63,8.83v.09l-.3.24c-.16.13-.23,0-.25-.16s.37-.13.54-.17Zm1.37-13.45-.39-.4c.26-.15.42-.11.49.11,0,.07-.07.19-.1.28Zm2.33-5.52c-.2-.15-.47-.22-.43-.55.07,0,.16,0,.2.09a4.73,4.73,0,0,1,.28.39Zm.61-4.82c.17,0,.37.19.37.44-.15-.07-.73-.26-.37-.44Zm.22-.27s.46.17.44.21c-.21.1-.34,0-.45-.21Zm.39-33.33c.07-.22.12-.44.2-.66a.14.14,0,0,1,.21,0,.17.17,0,0,1,0,.12.49.49,0,0,1-.46.56Zm1.07,30.16a.27.27,0,0,1-.12-.19.24.24,0,0,1,.15-.16s.12.07.24.14C775.62,637.24,775.55,637.32,775.48,637.34Zm1-25.7c-.26-.17-.73-.4-.53-.8.58-.38.71.3.53.8Zm4-1.62c-.13.07-.31.05-.31.3a2,2,0,0,1-.34,0l.45-.66c.06-.07.12-.13.17-.2s.11.13.11.19,0,.3-.08.34Zm.66,0c-.38-.07-.15-.5-.15-.78h.15c0,.24.23.63,0,.78Zm6.45-5.07-.51-.71c.41-.1.65.31.51.71Zm-.92,1.88c0-.4-.13-.68.15-.91.08-.13,0-.43,0-.61a1,1,0,0,1,.45.9c0,.19-.33.37-.56.61Zm.8.65a2.39,2.39,0,0,1,.22-.23,2.76,2.76,0,0,1,.29.3c-.23.29-.26.15-.51-.07Z" transform="translate(-325.35 -532.8)"/><path class="cls-5" d="M766.18,608.58" transform="translate(-325.35 -532.8)"/><path class="cls-5" d="M782.74,592.9a10.53,10.53,0,0,0,1.25.64,1.32,1.32,0,0,1,.81.76c.23.66,1,.79,1.35,1.44.2.32.52.38.79.54a.86.86,0,0,1,.21.29,5.13,5.13,0,0,0,1.05,1.3l.08-.09C788.18,597.58,783,592.87,782.74,592.9Z" transform="translate(-325.35 -532.8)"/><path class="cls-5" d="M778.55,591.87a2.68,2.68,0,0,1-.4-.48l0-.06c-.06.22.16.36.22.52a2,2,0,0,0,.5.75.22.22,0,0,0,.14-.13A1.15,1.15,0,0,1,778.55,591.87Z" transform="translate(-325.35 -532.8)"/><path d="M792.68,606.48v-.2c0-.07,0-.09,0-.13l-.17-.45a.45.45,0,0,1-.17-.44c-.13-.31-.26-.62-.4-.92h0a1.67,1.67,0,0,1-.25-.6q-.23-.48-.48-.93a.36.36,0,0,1-.19.32.49.49,0,0,1,0-.58c-.27.16-.24-.21-.25-.47l-.09-.14-.29.07a3.09,3.09,0,0,0,.14-.32l-.23-.37,0-.08c-.12.07-.23,0-.4-.14a1.56,1.56,0,0,1-.33-.92h0l-.25-.38a.84.84,0,0,1-.18-.23c-.21-.34-.59-.59-.47-1.11l-.09-.2,0-.07v0c-.05-.13-.11-.26-.17-.39l-.07.09a5.13,5.13,0,0,1-1.05-1.3,1.06,1.06,0,0,0-.22-.29c-.26-.17-.58-.22-.79-.54-.31-.65-1.12-.77-1.35-1.44a1.28,1.28,0,0,0-.81-.75c-.42-.19-.84-.41-1.24-.64a5.76,5.76,0,0,1-2.88-.26l-.24,0a1,1,0,0,1-.65-.2.21.21,0,0,1-.13.13,1.82,1.82,0,0,1-.51-.76c-.06-.16-.28-.29-.21-.51a4.9,4.9,0,0,1-.34-3.22v-.76l.08,0c0-.21,0-.42,0-.62a7.44,7.44,0,0,1,.1-1.56,1,1,0,0,1,.09-.8c0-3.72.87-7.81-1.25-10.69a1.57,1.57,0,0,1-.83-.72,6,6,0,0,1-1.25-.66,4.86,4.86,0,0,0-2.06-.25,28.05,28.05,0,0,0-2.7,1.32,6.56,6.56,0,0,1-.79,1.72,10.78,10.78,0,0,0-1,1.95,1.38,1.38,0,0,1-.28,1s0,.1,0,.15l0,.36a1,1,0,0,1-.14.35l-.06.53a1.44,1.44,0,0,1-.42.92c-.11.71-.24,1.41-.4,2.11a3.34,3.34,0,0,1-.1.43l-.18.73h0l-.18.51c-.1.41-.21.82-.32,1.23a1.68,1.68,0,0,1-.09.32,1.23,1.23,0,0,1-.68.85,3.35,3.35,0,0,1-.17.62.34.34,0,0,1-.08.45l-.06,0c-.47.24-.31.66-.32,1.06-.56.21-.87.21-1,0h0a1.15,1.15,0,0,1-.26,0,4,4,0,0,1-1.34.07,1,1,0,0,1-.36.19,12.51,12.51,0,0,1-4.4.19h-.06a1.86,1.86,0,0,1-1.29.65c-.42.12-.85.46-1.26.59-.41.44-.83.88-1.2,1.36a2.86,2.86,0,0,1-1.12,1l-.1,0c-.25.7-.44,1.49-.73,2.18a1.61,1.61,0,0,1,0,.31c0,.18-.12.36-.17.55s-.13.44-.44.36h-.22a1.3,1.3,0,0,1-.23.18l-.4.24c-.12.28-.31.62-.5,1l-.12.35c0,.15-.09.29-.22.32a5.89,5.89,0,0,0-.35.91c0,.4,0,.8,0,1.2a.5.5,0,0,1,.21.72,1.64,1.64,0,0,1,0,1.4c0,.3-.32.57-.58.69a.28.28,0,0,1-.18,0c-.14.24-.28.48-.44.7s0,.26,0,.39c0,.46-.05.91-.1,1.36a1,1,0,0,1,.3.65,1.53,1.53,0,0,1,.09,2.17,10.93,10.93,0,0,0-.06,1.4,16.22,16.22,0,0,0,.71,3.35,1.4,1.4,0,0,1,0,.76c.14.32.29.64.44,1a17.13,17.13,0,0,0,3.2,4.18,21.36,21.36,0,0,1,2.54,3.78c1.64.76,2,3,2.45,4.8a1.48,1.48,0,0,1,0,.86,6.77,6.77,0,0,1,.19,1.68c0,.82.15,1.6.19,2.34a.48.48,0,0,0,.35.08s.11.08.16.12c-.11.17-.34.19-.51.3a3,3,0,0,1,0,.42,1.56,1.56,0,0,1,.23.28,1.23,1.23,0,0,0-.34.26l0,.09a.63.63,0,0,0,1-.35c.17.24.19.51.38.7a4.68,4.68,0,0,0,.62.48V635l-.76.28c-.17-.13-.14-.45-.44-.36s-.27.21-.33.42-.17.42-.3.47c-.39.13-.48.4-.44.81s-.37.38-.6.28c0,.14-.05.27-.07.41a.84.84,0,0,1,.17.41l-.22,0a13.44,13.44,0,0,1-.19,1.9.36.36,0,0,1,0,.25c-.11.63-.25,1.26-.39,1.89a34.36,34.36,0,0,0-.6,3.79c0,.07,0,.15,0,.23h0c-.05.42-.09.83-.13,1.25a.91.91,0,0,1,.07.14c.09.18,0,.34-.13.5,0,.35-.06.7-.1,1a.33.33,0,0,1,0,.38v0c-.22,2.29-.54,4.57-1,6.82l.12.16-.16.1c0,.08,0,.16,0,.24-.09.48-.2,1-.31,1.46a3.23,3.23,0,0,1,0,1.77l-.34-.13c0,.09,0,.19,0,.28s.07.1.11.15l-.15.05a1.18,1.18,0,0,0,0,.2,2.67,2.67,0,0,1,.05,1.58,3.54,3.54,0,0,1,.21.91c0,1,.88,1.35,1.64,1.49a1.08,1.08,0,0,0,1.06-.87,10.81,10.81,0,0,1,.45-2.65,2.28,2.28,0,0,0,.22-.88c-.13-.92.36-1.71.39-2.59a18.28,18.28,0,0,1,.43-2.94c0-.56,0-1.13,0-1.68s.4-1,.34-1.61c.1-.4.5-.73.66-1.11a.46.46,0,0,0-.06-.41.61.61,0,0,1-.07-.78l0-.06a1.46,1.46,0,0,0,.17-.38l-.09,0,.49-.47.09-.92h-.12a1.41,1.41,0,0,1-.2.79,1.11,1.11,0,0,1-.15-.31,9.53,9.53,0,0,1,.51-1.82c-.45-.67-.34-.58,0-1.08-.06-.19-.17-.36-.14-.48.32-1.21.63-2.43,1-3.62.09-.25.37-.44.41-.68.07-.52.36-1,.12-1.59-.07-.18,0-.39.2-.36s.25-.15.32-.38c-.76.34-.19-1.1-.57-1.44l0,.11a.85.85,0,0,1-.25.13s-.1-.1-.12-.17a6.57,6.57,0,0,0-.52-1.43c-.38-.24.15-.49.32-.64l.06.07c-.06.11-.13.21-.21.34a.59.59,0,0,1,.4.7l.09,0,.27-.37c.3.14.09.33.05.5a4.58,4.58,0,0,1-.12.47h.7a.76.76,0,0,1,.41-.4s.13.11.12.13a1,1,0,0,1-.17.27c-.35.28-.36.32,0,.61,0,0,0,.09,0,.14.72,0,0-.81.62-.78.17,0,.31,0,.37.24a.31.31,0,0,0,.17.17c2.21.28,3,.72,3.14-2.2a4.1,4.1,0,0,1-.56-.81c-.17-.47-.6-.49-.91-.69a6.79,6.79,0,0,0-1.25-.5c-.24-.11-.55-.16-.51-.53a.17.17,0,0,0,0-.12c-.2,0-.39.13-.53.08s-.3-.43-.41-.62-.4-.29-.58-.46-.67-.41-.75-.91c-.22-.81-.93-.27-.88-1.38-1,.1-.42-2.43-.72-3-.23-.14-.22-.31-.1-.53a5.65,5.65,0,0,1,0-.92,11.22,11.22,0,0,1,1.06-2.64c.25-.6.91-.51.47-1.3-.25-.49.35-.85.34-1.36,0-.33,0-.67,0-1,.06-.52.4-1,.36-1.51,0-.06.07-.14.11-.2.22-.26.37-.58.6-.81s.63-.59.51-1.14a.5.5,0,0,1,0-.17c.16-.55.3-1.1.48-1.65a.71.71,0,0,1,.51-.4c-.17-.43-.15-.67.17-.9.51-.38.88-1,1.56-1.09-.44-.32-.21-.64-.1-1a4.75,4.75,0,0,1,.34-1.37c.75.59-.83,1.41.63,1.46-.41-.85-.27-1,.29-1.09.16,0,.24-.15.06-.31s-.08-.5,0-.71c0-.06.24,0,.4,0,0-.25.09-.69-.12-.94a1.43,1.43,0,0,1-.46.27,7.38,7.38,0,0,0,.13-.91c-.2-.27,0-.51.05-.73s.27-.54.39-.82c.31-.66,0-1.39.44-2a7.24,7.24,0,0,0,.51-1.87c.13-1,.36-2,.49-3,.06-.41,0-.86.33-1.19.11-.1.12-.38.13-.58a9,9,0,0,1,.21-2.58c0-.57.07-1.15.09-1.72a6.91,6.91,0,0,1,.37-2.35c.31-.45.11-1.09.21-1.61.1-.82.24-1.63.36-2.45,0-.19.07-.24.25-.2a4.05,4.05,0,0,0,.85.12c.27,0,.55-.14.74.2a.19.19,0,0,0,.17.06c.32-.06.69.16,1-.21.48-.12,1-.08,1.54-.16a1.11,1.11,0,0,0,.29.14.42.42,0,0,1,.31.5h0c0,.3-.28.7-.19,1,.41.2.28.6.19.88a3.29,3.29,0,0,0-.06,1.59c.26,1-.1,2,0,3,.13.56.3,1.11.45,1.67a22.33,22.33,0,0,0,.31,2.59,11.31,11.31,0,0,1,.23,1.93,5.81,5.81,0,0,1,0,2.12,8,8,0,0,1,.08,1.39c0,.53.17,1.07-.08,1.6-.14.29-.12.72-.31.94a1.24,1.24,0,0,0-.25,1.27.34.34,0,0,1,0,.26,1.58,1.58,0,0,0-.34,1.07h0c-.06.28-.23.64-.13.8a1.26,1.26,0,0,1,.06,1c-.06.33-.21.66,0,1,0,.06,0,.19,0,.28a4.77,4.77,0,0,1,.2,1.44c-.14.42-.13,1,.36,1.08a.72.72,0,0,0-.15-.73c.21,0,.37.15.44.09s.31-.06.4.22a2.44,2.44,0,0,1,.84-.7c0,.19,0,.31-.07.38-.34.49.42.85.65,1.2a.79.79,0,0,0-.17-.83c-.06-.08,0-.23-.06-.34a.59.59,0,0,1,.65.24l-.2-.61c-.42-.25-.38-.23-.17-.61.17.12.33.31.5.43s.25.36.2.6a.81.81,0,0,0,.39.77c-.12-.38-.38-.76-.05-1.15.5.86,1.19.73.92-.39-.17.08-.27-.09-.39-.18a1.66,1.66,0,0,1,.27-.26c.25.25.49.06.71,0s.75,0,1.08-.29c.63-.45.81.77,1.44.6a6.13,6.13,0,0,1,1.21,0,.5.5,0,0,0,.61-.17c.34-.41.68-.82,1-1.26.38-.69.55-1.57,1-2.25a1,1,0,0,0,.06-.84,3.26,3.26,0,0,1,.83-1.91l.12,0c.07.33.15.66.24,1a.65.65,0,0,1,.31,0c.11,0,.17.22.28.24.31.07.22.47.46.6s.13.21.17.33c.13.4.46.8.31,1.25-.14.19-.23,0-.29-.15a2.85,2.85,0,0,1-.42-1.07s-.08,0-.13-.08c0,.26,0,.49,0,.76-.42-.31-.51-.37-1,.59.12,0,.22,0,.28-.09s.33-.33.51,0c.1.1.43,0,.59,0l0,.09c-.13.07-.3.29-.26.43a.45.45,0,0,0,.27.1c.05,0,.1-.11.15-.11a1.27,1.27,0,0,1,.28.06c-.08.35-.4.5-.63.71l.1.06c0,.16.13.34.09.48-.08.33.07.7-.13,1l0,0,.42-.34c-.05-.27-.09-.55-.14-.83-.09-.7.85-1.44.87-.28a1.56,1.56,0,0,1,.08.55,5.61,5.61,0,0,1-.45,2c-.1.43,0,.9-.12,1.34-.24.63-.59,1.26-.86,1.88a16.16,16.16,0,0,1-1,2.79,6.51,6.51,0,0,0-.9,2.24.77.77,0,0,1-.07.27c-.47,1-1,1.94-1.57,2.91a7.49,7.49,0,0,1-.66,2.09c-.13.22-.29.42-.41.65s-.17.59-.36.7c-.35.23-.37.62-.49.94a1.29,1.29,0,0,1-.49.73,7.68,7.68,0,0,0-.91,1.23c-.22.29-.31.69-.52,1-.45.44-.54,1.1-.86,1.63-.45.7-1,1.27-1.44,2a7.79,7.79,0,0,1-.89,1.66c-.32.42-.28,1.72-1,1.3a.29.29,0,0,0-.24,0c-.24.13-.19.36-.16.59s0,.44-.3.51a.5.5,0,0,0-.44.54,2.19,2.19,0,0,1-.43.81c.55.33.27-.13.58-.39,0,0,.16.05.15.06a5.32,5.32,0,0,1-.14.89c-.05.18-.22.31-.28.49s-.22.45-.46.32A8.33,8.33,0,0,0,775,641c-.16.46-.34.91-.53,1.35-.18.15-.53.14-.76.21v.12l.51.15a.49.49,0,0,0-.27.69c0,.06,0,.21-.05.23-.32.14-.24.44-.24.72a14.51,14.51,0,0,1-.44,2.51,1.43,1.43,0,0,0-.37-.29c-.21.37,0,.72,0,1.14-.19.38-.4.8-.6,1.23a.25.25,0,0,0,0,.17c.19.38,0,.62-.2.88s-.33.55-.14.78.26.58-.06.72-.47.29-.39.7c-.19-.14-.36-.49-.56-.5-.24.16-.46,0-.68,0-.63-.14-.3.58-.25,1l.34,0c-.12-.28-.34-.48-.09-.78a1.07,1.07,0,0,0,.62.6.76.76,0,0,1,.45.9c-.12.17-.37.18-.54.25a4.78,4.78,0,0,0,.34.42c0,.16.1.35,0,.49s-.22.13-.35.15a1.09,1.09,0,0,1-.36-.12l.23.36c-.16.12-.56.42-.22.55s.38.32.27.65a3.38,3.38,0,0,1-.22,1c0,.37.34.72,0,1.15a1,1,0,0,0-.13.5c0,.23.14.51.06.68s-.08.81-.51.71c-.05.45-.09.86-.14,1.26-.17.06-.46,0-.17.35.13.39-.14.57-.45.75.12.06.21.13.29.11.4-.06.46,0,.49.46a5.56,5.56,0,0,0,.46,2.25l-.3.11c.16.15.37.23.52.38s.31.46.5.76c.14-.29.15-.76.4-.92.27-1,.57-1.93.94-2.91a40.61,40.61,0,0,0,1.48-6.32c.37-1.85.91-3.65,1.38-5.48l0-.22a.56.56,0,0,1,.23-.61c0-.1.05-.21.08-.32.54-2.37,1-4.76,1.72-7.08A1.31,1.31,0,0,1,778,642c.08-.13.13-.23.17-.23a.46.46,0,0,0,.26,0,12.32,12.32,0,0,1,.58-1.53.45.45,0,0,1,.05-.19l.08-.1c.15-.32.33-.64.52-1a.53.53,0,0,1,.28-.66.69.69,0,0,0,.36-.69.56.56,0,0,1,.07-.38,9.56,9.56,0,0,0,1.15-1.93c.41-.52.81-1.07,1.19-1.63.22-.68.48-1.34.75-2a1.11,1.11,0,0,1,.39-.51c.09-.22.19-.42.28-.63a1.12,1.12,0,0,1,.21-.37,1.42,1.42,0,0,1,.61-.58,24,24,0,0,0,1.94-3.86,12,12,0,0,1,1.22-1.89,1.24,1.24,0,0,0,.19-.36,7.84,7.84,0,0,1,.6-2.12c.25-.25.25-.28.32-.69a23.32,23.32,0,0,0,1-2.29c.08-.19.28-.41,0-.64,0,0,0-.16,0-.23.26.21.3.19.45-.09,0-.07,0-.18.08-.24.17-.26.23-.63.51-.8a10,10,0,0,1,.43-1.63l.06-.33a3.35,3.35,0,0,1,.22-.63c0-1.27.11-2.54.22-3.8a1.31,1.31,0,0,1,.12-.48,20.47,20.47,0,0,1,.31-2.06A1.11,1.11,0,0,1,792.68,606.48Zm-35.83,32c-.2-.31-.23-.31,0-.52C757.07,638.17,757,638.2,756.85,638.47Zm8.39-45c0,.28.06.5-.24.55,0-.21-.09-.47.24-.55Zm-.44-4.77.26-.07c.06.28-.09.44-.37.35Zm-8.32,11.72a1.11,1.11,0,0,1,.31-.09c0,.06,0,.12.05.19l-.39.14c0-.07,0-.21,0-.24Zm-.09.76.43.24c0,.06-.07.17-.11.17-.21,0-.34-.06-.32-.42Zm1.71,14a2.3,2.3,0,0,0-.43,1.4c0,.11,0,.3-.11.32a.35.35,0,0,1-.34-.07c-.53-.8-1.41-.27-2.05-.81-1.22-.66-2.5-1.27-3.13-2.7a6.8,6.8,0,0,1-1-2.87c0-.39-.17-1.35.44-1.09a7.32,7.32,0,0,1,1.66,1.44.77.77,0,0,1,0,.27l-.24,0,.09,0-.44.3c.3.48.5,1.07,1.15,1.13a5,5,0,0,1,.66.4c.16-.51,0-.77-.44-.84a2,2,0,0,1-.7-.36s0-.29,0-.38a.63.63,0,0,1,.8,0c.3.35.58.72.85,1.1a.84.84,0,0,1,.73.54s.09,0,.11,0c.24-.2.3,0,.41.22l.3-.46c.09.17.16.28.23.4l0-.11a3.24,3.24,0,0,1,.53.16,4.52,4.52,0,0,1,1,1.09,1,1,0,0,1-.15.93ZM759,633c.39,0,.47.26.46.63,0,.07.1.14.13.22a2,2,0,0,1,0,.24c-.09,0-.22,0-.25-.05a1.39,1.39,0,0,1-.19-.49c-.09-.49-.14-.51-.58-.21,0-.43,0-.42.39-.34Zm1.38-23.88a1.2,1.2,0,0,0-.34.68,2.5,2.5,0,0,1-.45.83,7.46,7.46,0,0,1-1.23-.77c-.61-.54-1.44-.41-2-.94a.4.4,0,0,0-.28-.08,1.71,1.71,0,0,1-1.14-.53c-.58-.31-.94-.89-1.48-1.25,0,0,0,0-.06,0-.17-.46-.65-.57-.84-1.1a8.64,8.64,0,0,1-.31-2.24,9.26,9.26,0,0,1-.4-2.91c.11-1,1.28.65,1.55.9a11.76,11.76,0,0,0,1.51,2.16c.51.43,1.06.83,1.59,1.23.24.19.54.29.55.71,0,.05.12.14.17.14a1,1,0,0,1,1.18.71c.54.6,0,.38,0,.88a.42.42,0,0,0,.51.36.37.37,0,0,0,.14-.07s0-.23,0-.46c.37.3.6.68,1,.82a.53.53,0,0,1,.41.94Zm2.32-4.79a3.67,3.67,0,0,1-.26.48c-.09.19-.19.35-.42.28s-.24.24-.36.4c-.19-.08-.41-.07-.41-.4-.42-.63-1.27-.75-1.91-1-.35-.13-.47-.36-.44-.78a.42.42,0,0,0-.09-.24c-.36-.3-.36-.78-.82-.37l-.88-.61c.43-.3.66-.49.14-.92a1.63,1.63,0,0,1-.28-.56c.51-.16.64-.06.77.43.1.22.3.43.39.66,0-.12,0-.44.14-.48s.4,0,.58.23a5.14,5.14,0,0,0,.74.66c-.23.28-.22.29.31.8,0-.15.05-.28.09-.49.56.49,1.36.51,1.9.92.25.24.38.6.77.64a.63.63,0,0,1,0,.36Zm2.23-5.72c-.15.14-.27.38-.54.17.2-.18.3-.46.57-.38,0,.06,0,.17,0,.2Zm-.3-.53a4,4,0,0,0-.54.72c.3.14.11.33,0,.52s-.37.57-.55.87l.07,0s0,0-.06,0c-.68-.4-1.4-.71-2.09-1.07a15.64,15.64,0,0,0-1.8-1.15c-.14-.06-.36-.07-.42-.19-.24-.48-.72-.36-1.08-.64.21-.66.9-.81,1.36-1.2a15.14,15.14,0,0,0,1.42-1.33c.11-.19.16-.46.42-.41.08,0,.22.16.21.2a1.71,1.71,0,0,1-.28.63c-.14.16-.35.24-.23.55l.35-.09c0,.19.06.36.08.54l.09,0,.36-.52-.35-.19c.11-.38.43-.65.19-1.05s.09-.43.27-.7c0,.38-.06.55.1.81a3.37,3.37,0,0,0,.7-.55,8.26,8.26,0,0,1,.34.87s-.19.18-.31.24-.21,0-.27,0a1.85,1.85,0,0,0-.21.33c.35.24.73-.06,1.07-.14,0-.57-.31-1.17.12-1.52.11-.06.28.06.43.1a4.6,4.6,0,0,0,1,.11,1.58,1.58,0,0,0-.51.38s0,.12,0,.19a.47.47,0,0,0,.17,0c.06,0,.1-.15.17-.17a1.88,1.88,0,0,1,.33-.05,2,2,0,0,1-.29,1.2l-.09-.65a1,1,0,0,0-.29,1.11c0-.19.08-.31.13-.52.09.56.58,1.8-.36,1.33a3.9,3.9,0,0,0,.13.76c0,.1.22.13.35.19l0-.08-.22-.43.13-.1C765,597.53,765.18,597.82,764.62,598.1Zm.62-1.18c0,.06-.11.12-.14.11-.26-.19-.06-.66-.09-1,.39.26.45.54.23.89Zm9.89,9.08-.12,0v-.57c.08,0,.22.08.22.11a3.56,3.56,0,0,1-.1.47Zm.81-25.12c-.05,0-.23-.15-.22-.2a1.72,1.72,0,0,1,.2-.38H776c.06.11.17.23.15.32a.4.4,0,0,1-.25.26Zm.23-2.07a3.08,3.08,0,0,1-.3.68.18.18,0,0,1-.14,0,.74.74,0,0,1,0-.33,6.17,6.17,0,0,0,.18-2.18c0-.34-.25-.4-.42-.56a3.19,3.19,0,0,1-.54-.56.48.48,0,0,1,.51-.59c.14,0,.23.37.32.48a.78.78,0,0,1,.4.72c.34.22.32.78.48,1.1a1.73,1.73,0,0,1-.5,1.28Zm8.45,20.69s-.06.12-.08.12c-.3,0-.26-.35-.34-.58l.13-.09c.1.18.2.36.29.55Zm-.68-1.8c.17.35.15.36.58.45l-.53.32c-.17-.6-.49.22-.71-.23,0-.5,0-.56.39-.66a.31.31,0,0,1,.27.13Zm.41,4.37a1.46,1.46,0,0,0-.31,1.34,1.09,1.09,0,0,1-.17.87,3.19,3.19,0,0,0-.08,1.16l-.14-.08a1.5,1.5,0,0,1-.73.44c0-.11-.17-.42-.3-.49s-.19.09-.19.13c0,.38.34.49.51.8l.3,0c-.32.36-.54.91-1,.79a6.72,6.72,0,0,1-.39.59c-.21.57-.68.66-1.14.76s-.49-.37-.53-.69c-.46.24-.47.29-.3.81.06.17.12.39-.11.43-.07,0-.19-.19-.27-.31s0-.16,0-.2l-.37-.31c0,.24,0,.47,0,.71h-.1l-.14-.3c-.31.47-.45.53-.89.35l.51-.79a.33.33,0,0,0-.43.19c0,.07-.12.1-.19.15-.2-.38.11-.68.22-1a.5.5,0,0,0,.05-.27c-.08-.45,0-.74.31-.93s.2-.33.15-.56a1.3,1.3,0,0,1,.67-1.32c-.08-.23-.13-.42-.21-.59a2.79,2.79,0,0,1,0-1.49c0-.5.06-1,.08-1.46.32-.14.32-.14.65.6l0-.58,0,0a4.41,4.41,0,0,0,.15-.74c0-.37,0-.44.41-.3.05-.65-.64-.56-.77-.07a1.65,1.65,0,0,0,.08.63c-.34,0-.7,0-.74-.46s-.19-.94.07-1.39a3.08,3.08,0,0,1,0-1c0-.21.06-.42.07-.62s-.06-.54.24-.66c0,0,0,0,0-.05.17-.51.57-.52.94-.44a1,1,0,0,1,.82.67s.07.07.14.14c.12-.6.63-.44.92-.13,0-.21.17-.23.38-.08s.68.41,1,.63c0,0,.08.11.07.13s-.23.46-.43.25-.54-.13-.73-.37c-.39.13.17.49.34.65a.82.82,0,0,0-.34.27c.2.34.66.22.79.67a.17.17,0,0,0,.13.1c.21,0,.28.13.36.31.22.52.21.55-.22.79a1.16,1.16,0,0,1,.15,1.56c.5-.07,1.19.18.73.77Zm0-.85-.36-.31a2.4,2.4,0,0,1,.4-.38s.23.16.22.18c-.08.18-.17.35-.26.51Zm.54-1-.14-.06v-1.44c0-.06.11-.17.14-.16a1,1,0,0,1,.38.21c.13.31-.09.44-.22.55l.29.17q-.23.38-.45.72Zm.73,0-.07,0a2.92,2.92,0,0,1-.19-.44s.13-.14.26-.28Zm-9.33,37.11a3.2,3.2,0,0,1,.43-.47s.15.11.2.15C776.91,637.42,776.44,637.75,776.31,637.3Z" transform="translate(-325.35 -532.8)"/><path d="M760.76,627.23c-.45-.13-.87-.68-1.42-.13l.19-1.18a3.42,3.42,0,0,0,1.26,1.22Z" transform="translate(-325.35 -532.8)"/><path d="M786.74,606.84c0-.39-.13-.67.15-.9.08-.13,0-.43,0-.61a1,1,0,0,1,.45.9C787.29,606.42,787,606.6,786.74,606.84Z" transform="translate(-325.35 -532.8)"/><path d="M767,654.16a2.45,2.45,0,0,1-.17,1.58A1.52,1.52,0,0,1,767,654.16Z" transform="translate(-325.35 -532.8)"/><path d="M776.5,611.64c-.27-.18-.73-.4-.54-.8C776.55,610.46,776.68,611.14,776.5,611.64Z" transform="translate(-325.35 -532.8)"/><path d="M762.49,638.57c.33,0,.78-.08.86.31a1.27,1.27,0,0,1-.25.42A5.36,5.36,0,0,1,762.49,638.57Z" transform="translate(-325.35 -532.8)"/><path d="M759.57,623.93c.25.26.14.55.07.81,0,0-.22.07-.29,0a.34.34,0,0,1-.13-.28A3.94,3.94,0,0,1,759.57,623.93Z" transform="translate(-325.35 -532.8)"/><path d="M759,652.16a6,6,0,0,1-.35-.72l-.1.11.09-.66h.08C758.82,651.28,759.15,651.6,759,652.16Z" transform="translate(-325.35 -532.8)"/><path d="M762.93,640.05c.08.26.4.78,0,.71C762.62,640.52,762.43,640,762.93,640.05Z" transform="translate(-325.35 -532.8)"/><path d="M779.9,610.36a10.56,10.56,0,0,1,.62-.87c0,.07.11.13.11.19s0,.31-.08.35-.31,0-.32.29Z" transform="translate(-325.35 -532.8)"/><path d="M759.68,627.81l.1-.2.72.31c-.32.53-.51.11-.83-.12Z" transform="translate(-325.35 -532.8)"/><path d="M774.41,607.18c.06-.22.12-.44.19-.66a.15.15,0,0,1,.22,0,.17.17,0,0,1,0,.12A.49.49,0,0,1,774.41,607.18Z" transform="translate(-325.35 -532.8)"/><path d="M787.15,604.26c.41-.1.65.31.51.71Z" transform="translate(-325.35 -532.8)"/><path d="M781.21,609.26c0,.24.23.63,0,.78-.37-.08-.15-.5-.15-.78Z" transform="translate(-325.35 -532.8)"/><path d="M766.46,660.83l.28-.33c.06.1.18.22.17.3a1.2,1.2,0,0,1-.2.39Z" transform="translate(-325.35 -532.8)"/><path d="M762.71,636c.11.41.19.72.28,1C762.71,637.06,762.53,636.56,762.71,636Z" transform="translate(-325.35 -532.8)"/><path d="M766.6,631.68" transform="translate(-325.35 -532.8)"/><path d="M761.9,637.79c.16,0,.34-.1.36,0a1.1,1.1,0,0,1,.17.59Z" transform="translate(-325.35 -532.8)"/><path d="M787.54,607.5a1.61,1.61,0,0,1,.22-.23,2.76,2.76,0,0,1,.29.3C787.82,607.86,787.79,607.72,787.54,607.5Z" transform="translate(-325.35 -532.8)"/><path d="M760.14,621.22l.71-.32C760.66,621.38,760.54,621.44,760.14,621.22Z" transform="translate(-325.35 -532.8)"/><path d="M770.46,650.72c.39-.24.61,0,.39.4Z" transform="translate(-325.35 -532.8)"/><path d="M769.48,664.66c-.17.13-.49.52-.54.08,0-.28.37-.13.54-.17Z" transform="translate(-325.35 -532.8)"/><path d="M759.3,623l.32.21,0,.11-.37.13-.09-.42Z" transform="translate(-325.35 -532.8)"/><path d="M761.77,636.33l.31.28c0,.24-.13.38-.41.31,0-.2.07-.4.1-.59Z" transform="translate(-325.35 -532.8)"/><path d="M764,637.57l.31.48c-.27.17-.34-.06-.43-.23s0-.17,0-.26Z" transform="translate(-325.35 -532.8)"/><path d="M762.31,614.51l.09.4-.33,0,.08-.38Z" transform="translate(-325.35 -532.8)"/><path d="M766.53,653.6l.14-.44c.06,0,.16.07.15.08a3,3,0,0,1-.1.43Z" transform="translate(-325.35 -532.8)"/><path d="M774.17,641.22c-.16-.11-.46-.11-.49-.34C773.84,640.61,774.18,640.94,774.17,641.22Z" transform="translate(-325.35 -532.8)"/><path d="M773.19,645.6c-.2-.15-.47-.22-.43-.55.24,0,.34.29.48.48Z" transform="translate(-325.35 -532.8)"/><path d="M774.45,640.72c-.2.1-.34,0-.44-.21a1.3,1.3,0,0,1,.51.08Z" transform="translate(-325.35 -532.8)"/><path d="M766.18,608.58h.1C766.28,608.77,766.1,608.77,766.18,608.58Z" transform="translate(-325.35 -532.8)"/><path d="M775.75,637.14c-.2.17-.31.32-.39,0a.25.25,0,0,1,.15-.15S775.63,637.06,775.75,637.14Z" transform="translate(-325.35 -532.8)"/><path d="M772.46,586.45" transform="translate(-325.35 -532.8)"/><path class="cls-5" d="M778.44,608.06a.33.33,0,0,0-.45.18c0,.07-.12.1-.18.15-.2-.38.11-.68.22-1a.59.59,0,0,0,.05-.27c-.08-.44,0-.74.31-.92s.19-.34.15-.57a1.3,1.3,0,0,1,.67-1.32c-.08-.23-.14-.41-.21-.58a2.7,2.7,0,0,1,0-1.49c0-.5,0-1,.08-1.46.32-.14.32-.14.64.6l0-.58.05,0a3.72,3.72,0,0,0,.14-.74c0-.38.06-.44.42-.3,0-.66-.64-.57-.78-.08a1.84,1.84,0,0,0,.08.63c-.34,0-.7,0-.73-.45s-.19-1,.06-1.4a3.42,3.42,0,0,1,0-1,4.36,4.36,0,0,0,.07-.62c0-.28-.05-.53.24-.66,0,0,0,0,0,0,.17-.52.57-.52,1-.44a1,1,0,0,1,.81.66c0,.05.07.08.14.15.12-.61.64-.45.93-.13,0-.21.17-.23.37-.09s.68.42,1,.63c0,0,.09.11.08.13s-.24.47-.43.26-.54-.13-.73-.38c-.39.13.17.5.33.65a.89.89,0,0,0-.34.27c.2.34.66.23.79.68a.2.2,0,0,0,.13.09c.22,0,.29.13.37.32.21.51.21.54-.22.78.32.46.61.92.14,1.56.5-.08,1.19.16.73.75a1.51,1.51,0,0,0-.31,1.35,1.08,1.08,0,0,1-.17.86c-.17.34,0,.79-.08,1.17l-.14-.09a1.6,1.6,0,0,1-.73.45,1.18,1.18,0,0,0-.3-.5s-.19.09-.19.14c0,.37.34.49.51.8l.31,0c-.33.35-.54.91-1,.79-.17.27-.25.39-.4.59-.2.57-.68.66-1.13.75s-.49-.36-.53-.69c-.46.24-.48.29-.3.81,0,.17.11.39-.12.43-.07,0-.19-.19-.27-.3s0-.17,0-.21a3.57,3.57,0,0,0-.38-.3c0,.23,0,.47,0,.7h-.1l-.14-.3c-.3.47-.45.54-.89.35l.51-.79c.12,0,.28.13.34.08.3-.24-.18-.42,0-.69.51-.07.71.06.54-.65,0-.25-.19-.51,0-.8.08-.11,0-.41,0-.6s-.26,0-.47,0c.23.4.44.69,0,1,0,0,0,.13,0,.19a.42.42,0,0,1-.23.57c-.17.1-.33.23-.16.5A1.54,1.54,0,0,1,778.44,608.06Zm1.67-1.82.06-.76c-.28.1-.28.1-.6.63,0,.06-.08.19-.05.22a.24.24,0,0,0,.21.09,2.53,2.53,0,0,0,.37-.18Zm1.14,1.44h.12c0-.43.11-.87.17-1.32l-.56.28c0,.09,0,.3,0,.31.36.14.21.47.23.73Zm-.72-.65c-.32.17-.32.17-.07.46a.43.43,0,0,0,.34.27c.36-.16-.08-.58-.28-.73Zm-.84-5.08a2,2,0,0,1-.7.91l.07.15a.77.77,0,0,0,.63-1.06Zm2.6,2.76a.51.51,0,0,0,.64-.25c-.1-.38-.57,0-.65.25Zm.25,1.92c0-.14-.08-.28-.13-.41s-.13-.06-.19-.08-.06.2,0,.24a2.7,2.7,0,0,0,.34.25Zm-.73-.8c.07-.11.14-.17.15-.24s-.11-.16-.13-.15a.66.66,0,0,0-.18.19S781.73,605.73,781.81,605.83ZM779.63,607l-.16.07.11.36s.14-.07.13-.1S779.66,607.13,779.63,607Zm-.51.53-.07.17.34.16c0-.07,0-.17,0-.19A1.92,1.92,0,0,0,779.12,607.55Z" transform="translate(-325.35 -532.8)"/><path class="cls-5" d="M759,607.37c.36.3.59.67,1,.82a.51.51,0,0,1,.57.35c.1.23,0,.4-.17.59a1.23,1.23,0,0,0-.34.68,2.65,2.65,0,0,1-.45.84,9.08,9.08,0,0,1-1.23-.77c-.6-.55-1.44-.41-2-1a.4.4,0,0,0-.28-.07,1.77,1.77,0,0,1-1.14-.54,17.47,17.47,0,0,1-1.48-1.25s0,0-.06,0c-.17-.46-.65-.56-.84-1.1a8.62,8.62,0,0,1-.31-2.23,9.34,9.34,0,0,1-.4-2.91c.12-1,1.28.64,1.55.89a11.91,11.91,0,0,0,1.51,2.16c.51.43,1.06.83,1.59,1.23.25.19.54.29.55.71,0,.05.12.15.17.14a1,1,0,0,1,1.18.71c.54.6,0,.38,0,.88a.42.42,0,0,0,.51.36.27.27,0,0,0,.14-.07C759,607.8,759,607.6,759,607.37Z" transform="translate(-325.35 -532.8)"/><path class="cls-5" d="M756.18,613.12l.3-.45.22.4,0-.12a3.24,3.24,0,0,1,.53.16,4.45,4.45,0,0,1,.94,1.09,1,1,0,0,1-.13.93,2.39,2.39,0,0,0-.43,1.39c0,.11,0,.3-.11.32a.36.36,0,0,1-.34-.07c-.35-.59-.91-.44-1.41-.53-1.43-.64-3-1.37-3.76-3a17,17,0,0,1-.92-2.09,2.83,2.83,0,0,1-.08-.78c0-.39-.17-1.35.43-1.08a6.89,6.89,0,0,1,1.67,1.43c0,.07,0,.19,0,.28l-.24,0,.09,0-.45.3c.31.48.51,1.06,1.16,1.13a4.65,4.65,0,0,1,.66.4c.16-.52,0-.77-.44-.85a1.84,1.84,0,0,1-.71-.36.52.52,0,0,1,0-.38.63.63,0,0,1,.81,0,11.87,11.87,0,0,1,.85,1.1.84.84,0,0,1,.73.53s.08,0,.11,0C756,612.7,756.07,612.94,756.18,613.12Z" transform="translate(-325.35 -532.8)"/><path class="cls-5" d="M765,594a1.41,1.41,0,0,0-.53.38s0,.12,0,.18a.33.33,0,0,0,.17,0c.06,0,.1-.14.17-.16a1.26,1.26,0,0,1,.33-.05,2,2,0,0,1-.29,1.2l-.09-.66a1,1,0,0,0-.3,1.11l.14-.52c.09.57.57,1.81-.36,1.33a4.94,4.94,0,0,0,.12.77c0,.09.23.12.35.19l0-.09-.22-.43.12-.09c.31.41.53.71,0,1a4,4,0,0,0-.54.72c.3.14.11.33,0,.52l-.55.87.07,0s0,0-.05,0c-.68-.4-1.41-.71-2.1-1.07a14.82,14.82,0,0,0-1.8-1.15c-.14-.06-.36-.07-.42-.19-.24-.48-.72-.36-1.08-.64.21-.66.9-.81,1.36-1.2a14,14,0,0,0,1.42-1.33c.11-.19.16-.46.42-.41.08,0,.22.16.21.2a1.56,1.56,0,0,1-.28.63c-.14.16-.35.24-.23.55l.35-.09.08.54.09,0,.37-.52-.36-.19c.11-.38.43-.65.19-1.05s.09-.43.27-.7c0,.38-.06.55.1.81a3.37,3.37,0,0,0,.7-.55,8.26,8.26,0,0,1,.34.87s-.19.18-.31.24-.21,0-.26,0a1.46,1.46,0,0,0-.22.33c.35.24.73-.06,1.07-.14,0-.57-.31-1.17.13-1.52.1-.06.27.06.42.1a4.88,4.88,0,0,0,1,.11Zm-2.65,2.73c-.39,0-.77-.31-1.17-.08.36.18,1,.66,1.16.07l.3.07c.2.06.51-.12.51-.3-.11,0-.25.06-.33,0-.27-.18-.38,0-.47.23Zm1.25-.35,0,0c0-.08.11-.15.12-.23,0-.31.28-.55.2-.92,0-.14.18-.33.24-.52,0-.38-.29-.33-.48-.31-.05.7-.09,1.32-.13,2Zm-3.15,0,.13,0-.08-.8-.35.51Zm-.63-.21v.68c.33-.42.31-.62,0-.68Z" transform="translate(-325.35 -532.8)"/><path class="cls-5" d="M758,602.69l-.88-.6c.42-.3.65-.49.14-.92-.14-.12-.19-.37-.29-.57.51-.15.65-.06.78.43.1.22.29.43.38.67,0-.13,0-.45.15-.49s.4,0,.57.23a4.67,4.67,0,0,0,.75.66c-.23.29.36.53.4.31a3.54,3.54,0,0,0,.85.47c.35.15,1.42,1.06,1.81,1.09a.62.62,0,0,1,0,.38,2.77,2.77,0,0,1-.26.48c-.09.19-.18.35-.41.28s-.25.24-.36.39c-.19-.07-.42-.06-.42-.39-.42-.63-1.27-.75-1.91-1-.34-.13-.46-.36-.43-.78a.5.5,0,0,0-.09-.24C758.44,602.76,758.44,602.29,758,602.69Zm3.41,1.44c.08-.37,0-.52-.26-.51s-.34-.18-.5,0,.85,1.48,1.1,1.4.16-.36-.06-.49Z" transform="translate(-325.35 -532.8)"/><path class="cls-5" d="M776.68,577.53a1.75,1.75,0,0,1-.51,1.27c-.11.2-.13.48-.31.68a.14.14,0,0,1-.13,0,.74.74,0,0,1,0-.33,6.09,6.09,0,0,0,.18-2.17c0-.34-.25-.4-.43-.57s-.77-.54-.44-1a.61.61,0,0,1,.42-.16c.14,0,.23.36.33.47a.77.77,0,0,1,.39.72C776.54,576.66,776.52,577.21,776.68,577.53Z" transform="translate(-325.35 -532.8)"/><path class="cls-5" d="M785.07,599.28l.3.17-.46.73-.14-.06v-1.44c0-.06.11-.17.14-.16a1,1,0,0,1,.38.21C785.42,599,785.2,599.17,785.07,599.28Z" transform="translate(-325.35 -532.8)"/><path class="cls-5" d="M783.28,598.24c0-.5,0-.56.39-.66a.31.31,0,0,1,.27.13c.17.34.15.35.58.44l-.53.32C783.82,597.87,783.5,598.69,783.28,598.24Z" transform="translate(-325.35 -532.8)"/><path class="cls-5" d="M758.59,633.36c0-.43,0-.42.4-.34s.46.26.46.62c0,.07.1.15.13.23a.88.88,0,0,1,0,.24c-.08,0-.21,0-.24-.06a1.41,1.41,0,0,1-.2-.49C759.08,633.07,759,633.05,758.59,633.36Z" transform="translate(-325.35 -532.8)"/><path class="cls-5" d="M776.94,637c0,.44-.51.77-.63.32a3.2,3.2,0,0,1,.43-.47S776.89,636.94,776.94,637Z" transform="translate(-325.35 -532.8)"/><path class="cls-5" d="M765,596c.39.26.45.54.23.89,0,.05-.11.12-.14.11C764.84,596.84,765,596.37,765,596Z" transform="translate(-325.35 -532.8)"/><path class="cls-5" d="M784,600.91a2.4,2.4,0,0,1,.4-.38s.23.16.22.19-.17.34-.26.5Z" transform="translate(-325.35 -532.8)"/><path class="cls-5" d="M776,580.3c.06.1.17.23.15.31a.4.4,0,0,1-.25.27c-.05,0-.23-.15-.22-.2a1.52,1.52,0,0,1,.2-.38Z" transform="translate(-325.35 -532.8)"/><path class="cls-5" d="M784.33,599c.1.19.2.36.29.55,0,0-.06.13-.08.12-.3,0-.26-.35-.34-.58Z" transform="translate(-325.35 -532.8)"/><path class="cls-5" d="M764.37,598.79c.2-.18.31-.45.58-.38,0,.07,0,.18,0,.21S764.65,599,764.37,598.79Z" transform="translate(-325.35 -532.8)"/><path class="cls-5" d="M756.39,601.13l.43.24c0,.06-.07.17-.12.18C756.5,601.58,756.37,601.49,756.39,601.13Z" transform="translate(-325.35 -532.8)"/><path class="cls-5" d="M785.64,599.51v.68l-.07,0a2.17,2.17,0,0,1-.19-.44S785.51,599.65,785.64,599.51Z" transform="translate(-325.35 -532.8)"/><path class="cls-5" d="M765,594c0-.22-.1-.49.24-.57,0,.29.06.51-.25.57Z" transform="translate(-325.35 -532.8)"/><path class="cls-5" d="M756.84,600.48l-.39.15c0-.08,0-.22,0-.25a1.17,1.17,0,0,1,.32-.09Z" transform="translate(-325.35 -532.8)"/><path class="cls-5" d="M756.85,638.47c-.2-.31-.23-.31,0-.52C757.07,638.17,757,638.2,756.85,638.47Z" transform="translate(-325.35 -532.8)"/><path class="cls-5" d="M764.79,588.66l.27-.08c.06.29-.09.44-.37.36l.11-.29Z" transform="translate(-325.35 -532.8)"/><path class="cls-5" d="M775,605.41c.08,0,.23.09.23.12a3.78,3.78,0,0,1-.1.46l-.12,0v-.56Z" transform="translate(-325.35 -532.8)"/><path d="M778.44,608.06c0-.16,0-.35,0-.45-.17-.28,0-.41.16-.51a.42.42,0,0,0,.23-.56c0-.07,0-.19,0-.2.42-.26.21-.56,0-1,.21,0,.46,0,.47,0,.06.19.12.49,0,.6-.23.29-.08.55,0,.8.17.72,0,.58-.54.65-.14.27.34.45,0,.7-.06,0-.22-.06-.34-.09Z" transform="translate(-325.35 -532.8)"/><path d="M780.1,606.24a1.66,1.66,0,0,1-.38.18.24.24,0,0,1-.21-.09s0-.16,0-.22c.32-.53.32-.53.6-.63Z" transform="translate(-325.35 -532.8)"/><path d="M781.24,607.68c0-.26.13-.59-.24-.72,0,0,0-.21,0-.3l.56-.28c-.06.44-.11.88-.17,1.32Z" transform="translate(-325.35 -532.8)"/><path d="M780.52,607c.2.15.64.56.27.73a.44.44,0,0,1-.34-.27C780.2,607.2,780.2,607.2,780.52,607Z" transform="translate(-325.35 -532.8)"/><path d="M779.69,602a.77.77,0,0,1-.63,1.06l-.08-.15A2,2,0,0,0,779.69,602Z" transform="translate(-325.35 -532.8)"/><path d="M780.1,597.71" transform="translate(-325.35 -532.8)"/><path d="M782.28,604.71c.08-.29.55-.63.65-.25A.53.53,0,0,1,782.28,604.71Z" transform="translate(-325.35 -532.8)"/><path d="M782.53,606.63a2.13,2.13,0,0,1-.34-.25s0-.16,0-.24.17,0,.2.08A2.77,2.77,0,0,1,782.53,606.63Z" transform="translate(-325.35 -532.8)"/><path d="M781.81,605.83l-.17-.19a.81.81,0,0,1,.18-.19s.14.11.13.15S781.88,605.71,781.81,605.83Z" transform="translate(-325.35 -532.8)"/><path d="M779.63,607c0,.11.06.22.08.33s-.09.07-.13.1l-.11-.36Z" transform="translate(-325.35 -532.8)"/><path d="M779.12,607.55a1.47,1.47,0,0,1,.28.14s0,.12,0,.19l-.34-.16Z" transform="translate(-325.35 -532.8)"/><path d="M763.59,596.37c0-.63.08-1.25.13-2,.19,0,.51-.08.48.31-.06.19-.27.38-.24.52.08.38-.18.61-.2.92,0,.08-.08.15-.12.23Z" transform="translate(-325.35 -532.8)"/><path d="M762.33,596.71c-.15.59-.8.12-1.16-.07.4-.23.78.12,1.17.08Z" transform="translate(-325.35 -532.8)"/><path d="M762.34,596.72c.09-.25.2-.41.48-.23.08,0,.21,0,.32,0,0,.19-.31.36-.51.3l-.3-.07Z" transform="translate(-325.35 -532.8)"/><path d="M760.44,596.37l-.29-.31.35-.51.07.8Z" transform="translate(-325.35 -532.8)"/><path d="M759.81,596.16c.31.06.33.26,0,.69Z" transform="translate(-325.35 -532.8)"/><path d="M761.67,604.48c.1.07.29.19.25.35a.26.26,0,0,1-.37.1l0,0c-.17-.16-1.4-1.42-.71-1.38a1.58,1.58,0,0,0,.31.09C761.39,603.61,761.56,604.35,761.67,604.48Z" transform="translate(-325.35 -532.8)"/></g><path class="cls-6" d="M744.47,679.84l75,.91Z" transform="translate(-325.35 -532.8)"/></svg>